<svg xmlns="http://www.w3.org/2000/svg" width="320" height="200" viewBox="0 0 320 200">
  <path
    d="M28 102C28 64 61 35 99 35C124 35 142 45 160 57C177 68 193 79 215 79C242 79 264 62 281 44C292 33 307 44 302 59C295 80 280 99 261 111C284 122 300 142 305 165C308 180 292 191 278 183C255 170 236 149 207 149C183 149 165 163 148 176C133 187 116 195 95 195C57 195 25 165 25 128C25 118 27 109 31 100"
    fill="none"
    stroke="#000"
    stroke-width="22"
    stroke-linecap="round"
    stroke-linejoin="round"
    opacity="0.95"
  />
</svg>
